<?xml version="1.0" standalone="yes"?>
<svg xmlns="http://www.w3.org/2000/svg" width="300" height="300">
<path style="fill:#f0fff3; stroke:none;" d="M0 0L0 300L300 300L300 0L0 0z"/>
<path style="fill:#81ff98; stroke:none;" d="M119 27.64C111.249 29.456 105.962 35.0729 99 38.4843C80.6192 47.4912 59.5216 55.9989 45.5777 72.1452C40.1323 78.4506 36.9202 86.9423 32.5565 93.9992C29.4229 99.0668 23.016 102.663 20.8447 108.03C16.0644 119.848 16.1986 138.272 15.9896 151C15.8161 161.567 13.763 172.404 15.1845 183C16.5467 193.153 21.6933 202.678 25.4001 212C27.8246 218.098 28.7405 225.415 32.6601 230.793C38.61 238.957 48.7455 243.211 55.7764 250.224C62.1659 256.598 65.8698 263.471 74 268.151C78.2847 270.618 82.457 270.43 87 271.856C94.5835 274.237 100.952 277.776 109 278.694C123.387 280.336 136.818 275.888 151 274.305C159.851 273.318 169.277 275.383 178 273.566C193.952 270.242 209.117 258.583 222 249.173C239.656 236.276 257.518 221.654 268.135 202C271.254 196.225 269.481 189.182 271.577 183C276.44 168.653 278.123 156.738 280.766 142C281.602 137.339 284.998 132.753 284.709 128C282.688 94.8092 259.208 56.4238 231.997 37.6749C210.843 23.0999 183.635 30.0736 160 28.9406C146.917 28.3134 131.963 24.6031 119 27.64z"/>
<path style="fill:#f0fff3; stroke:none;" d="M121 35L121 36L137 35L121 35z"/>
<path style="fill:#07ff33; stroke:none;" d="M125 35.4952C115.78 37.1395 109.333 43.9305 101 47.6683C83.9383 55.3212 65.5999 64.3558 52.4581 78.3756C46.5216 84.7087 42.7811 94.644 38.0441 101.999C35.5159 105.925 30.8576 109.098 28.9798 113.256C26.3544 119.069 26.38 128.581 25.256 135C20.7841 160.542 23.1878 183.303 33.0455 207C35.4168 212.7 36.4756 219.56 39.9697 224.684C45.4332 232.695 54.9393 236.962 61.93 243.336C67.5431 248.453 70.3211 255.353 77.0008 259.494C81.8285 262.486 86.7299 262.541 92 264.07C99.9384 266.374 106.518 270.348 115 270.882C126.02 271.575 137.917 267.22 149 266.196C157.228 265.437 165.841 267.102 173.99 265.73C188.624 263.266 203.424 251.1 215.196 242.82C231.952 231.035 251.044 216.963 260.461 198C263.14 192.605 261.929 185.783 263.767 180C268.793 164.195 275.694 145.828 274.996 129C273.745 98.8721 252.74 64.4075 229 46.6106C207.452 30.4572 173.877 36.7341 149 37.7434C140.735 38.0788 133.536 33.9728 125 35.4952z"/>
<path style="fill:#f0fff3; stroke:none;" d="M183 35L183 36L199 36L183 35M140 36L140 37L144 37L140 36M152 36L152 37L183 37L152 36M116.667 37.3333L117.333 37.6667L116.667 37.3333M144 37L144 38L152 38L144 37M206 38L206 39L213 39L206 38M113.667 39.3333L114.333 39.6667L113.667 39.3333M108.667 43.3333L109.333 43.6667L108.667 43.3333M106.667 44.3333L107.333 44.6667L106.667 44.3333M104.667 45.3333L105.333 45.6667L104.667 45.3333M102.667 46.3333L103.333 46.6667L102.667 46.3333M100.667 47.3333L101.333 47.6667L100.667 47.3333M89 50L89 51L94 51L89 50M87.6667 51.3333L88.3333 51.6667L87.6667 51.3333M81.6667 56.3333L82.3333 56.6667L81.6667 56.3333M77.6667 59.3333L78.3333 59.6667L77.6667 59.3333M242.333 59.6667L242.667 60.3333L242.333 59.6667z"/>
<path style="fill:#81ff98; stroke:none;" d="M155 60L155 61L173 61L155 60M150 61L150 62L154 62L150 61z"/>
<path style="fill:#f0fff3; stroke:none;" d="M154 61.4595C116.077 67.1671 71.964 92.3202 57.9153 130C54.5387 139.056 56.2432 149.555 54.7346 159C51.5033 179.229 45.1908 200.567 62.2558 216.449C76.8394 230.022 88.6428 224.229 106 224.229C123.648 224.229 141.21 227 159 227L207 227C211.171 227.001 220.935 229.569 224.268 226.85C230.515 221.755 217.43 220.01 215 220.001C199.334 219.941 183.666 220 168 220C148.155 220 128.708 217.327 109 217.01C99.4883 216.858 88.0799 220.409 79 216.578C54.1362 206.088 58.3373 185.343 61.6678 164C64.6211 145.074 64.5919 131.265 76.6664 115.001C103.523 78.8255 150.245 62.7442 193 72.0983C200.168 73.6665 209.207 70.9572 215.913 73.7173C224.389 77.206 233.365 96.5844 235.789 105C237.78 111.908 232.884 116.423 232.145 123C229.246 148.79 219.847 169.518 203.997 189.999C200.447 194.586 193.894 198.524 191.859 204.006C190.894 206.607 191.376 210.757 195.042 210.373C202.665 209.574 209.583 197.41 213.655 192C228.882 171.768 235.868 151.911 239.177 127C240.394 117.844 245.381 111.923 243.497 102C241.664 92.3483 232.158 73.399 223.874 67.8447C218.281 64.0947 209.378 66.4402 203 65.8003C186.587 64.1533 170.785 58.9332 154 61.4595z"/>
<path style="fill:#81ff98; stroke:none;" d="M175 61L175 62L183 62L175 61z"/>
<path style="fill:#f0fff3; stroke:none;" d="M71.6667 62.3333L72.3333 62.6667L71.6667 62.3333z"/>
<path style="fill:#81ff98; stroke:none;" d="M143 62L143 63L149 63L143 62M185 62L185 63L190 63L185 62z"/>
<path style="fill:#f0fff3; stroke:none;" d="M244.333 62.6667L244.667 63.3333L244.333 62.6667M69.6667 63.3333L70.3333 63.6667L69.6667 63.3333z"/>
<path style="fill:#81ff98; stroke:none;" d="M138 63L138 64L141 64L138 63M195 64L195 65L198 65L195 64z"/>
<path style="fill:#f0fff3; stroke:none;" d="M245.333 64.6667L245.667 65.3333L245.333 64.6667M67.3333 65.6667L67.6667 66.3333L67.3333 65.6667z"/>
<path style="fill:#81ff98; stroke:none;" d="M200 65L200 66L220 66L200 65M157 68L157 69L170 69L157 68M152 69L152 70L156 70L152 69M171 69L171 70L181 70L171 69M145 70L145 71L151 71L145 70M182 70L182 71L187 71L182 70M118.667 71.3333L119.333 71.6667L118.667 71.3333M142.667 71.3333L143.333 71.6667L142.667 71.3333M188 71L188 72L191 72L188 71z"/>
<path style="fill:#f0fff3; stroke:none;" d="M60.6667 72.3333L61.3333 72.6667L60.6667 72.3333z"/>
<path style="fill:#81ff98; stroke:none;" d="M192 72L192 73L195 73L192 72z"/>
<path style="fill:#f0fff3; stroke:none;" d="M58.6667 73.3333L59.3333 73.6667L58.6667 73.3333z"/>
<path style="fill:#81ff98; stroke:none;" d="M136 73L136 74L139 74L136 73M196 73L196 74L218 74L196 73z"/>
<path style="fill:#f0fff3; stroke:none;" d="M56.6667 74.3333L57.3333 74.6667L56.6667 74.3333z"/>
<path style="fill:#81ff98; stroke:none;" d="M132 74L132 75L135 75L132 74z"/>
<path style="fill:#f0fff3; stroke:none;" d="M255.333 74.6667L255.667 75.3333L255.333 74.6667z"/>
<path style="fill:#81ff98; stroke:none;" d="M219.333 75.6667L219.667 76.3333L219.333 75.6667z"/>
<path style="fill:#f0fff3; stroke:none;" d="M53.6667 76.3333L54.3333 76.6667L53.6667 76.3333z"/>
<path style="fill:#81ff98; stroke:none;" d="M127 76L127 77L130 77L127 76z"/>
<path style="fill:#f0fff3; stroke:none;" d="M256.333 76.6667L256.667 77.3333L256.333 76.6667M50.3333 79.6667L50.6667 80.3333L50.3333 79.6667M258.333 79.6667L258.667 80.3333L258.333 79.6667M49.3333 81.6667L49.6667 82.3333L49.3333 81.6667z"/>
<path style="fill:#81ff98; stroke:none;" d="M117.667 81.3333L118.333 81.6667L117.667 81.3333z"/>
<path style="fill:#f0fff3; stroke:none;" d="M259.333 81.6667L259.667 82.3333L259.333 81.6667M260.333 83.6667L260.667 84.3333L260.333 83.6667M47.3333 86.6667L47.6667 87.3333L47.3333 86.6667z"/>
<path style="fill:#81ff98; stroke:none;" d="M108.667 86.3333L109.333 86.6667L108.667 86.3333z"/>
<path style="fill:#f0fff3; stroke:none;" d="M262.333 86.6667L262.667 87.3333L262.333 86.6667M263.333 88.6667L263.667 89.3333L263.333 88.6667M44 89L44 92L45 92L46 89L44 89z"/>
<path style="fill:#81ff98; stroke:none;" d="M228.333 89.6667L228.667 90.3333L228.333 89.6667z"/>
<path style="fill:#f0fff3; stroke:none;" d="M264 90L264 93L265 93L264 90z"/>
<path style="fill:#81ff98; stroke:none;" d="M230.333 93.6667L230.667 94.3333L230.333 93.6667z"/>
<path style="fill:#f0fff3; stroke:none;" d="M265 93L265 97L266 97L265 93M41.3333 95.6667L41.6667 96.3333L41.3333 95.6667M40.3333 97.6667L40.6667 98.3333L40.3333 97.6667M266.333 97.6667L266.667 98.3333L266.333 97.6667z"/>
<path style="fill:#81ff98; stroke:none;" d="M243 99L243 102L244 102L243 99z"/>
<path style="fill:#f0fff3; stroke:none;" d="M38.3333 100.667L38.6667 101.333L38.3333 100.667z"/>
<path style="fill:#81ff98; stroke:none;" d="M234.333 100.667L234.667 101.333L234.333 100.667z"/>
<path style="fill:#f0fff3; stroke:none;" d="M268.333 100.667L268.667 101.333L268.333 100.667M269.333 102.667L269.667 103.333L269.333 102.667M36.3333 103.667L36.6667 104.333L36.3333 103.667z"/>
<path style="fill:#81ff98; stroke:none;" d="M235 103L235 106L236 106L235 103M244 103L244 115L245 115L244 103z"/>
<path style="fill:#f0fff3; stroke:none;" d="M270.333 104.667L270.667 105.333L270.333 104.667M35.3333 105.667L35.6667 106.333L35.3333 105.667M271 106L271 109L272 109L271 106z"/>
<path style="fill:#81ff98; stroke:none;" d="M236 107L236 113L237 113L236 107z"/>
<path style="fill:#f0fff3; stroke:none;" d="M31.6667 109.333L32.3333 109.667L31.6667 109.333M272 109L272 118L273 118L272 109M29.6667 110.333L30.3333 110.667L29.6667 110.333M27 114L27 125L28 125L27 114z"/>
<path style="fill:#81ff98; stroke:none;" d="M65.3333 115.667L65.6667 116.333L65.3333 115.667z"/>
<path style="fill:#f0fff3; stroke:none;" d="M273 118L273 121L274 121L273 118z"/>
<path style="fill:#81ff98; stroke:none;" d="M73.3333 119.667L73.6667 120.333L73.3333 119.667M241.333 119.667L241.667 120.333L241.333 119.667z"/>
<path style="fill:#f0fff3; stroke:none;" d="M274 121L274 127L275 127L274 121z"/>
<path style="fill:#81ff98; stroke:none;" d="M231 122L231 132L232 132L231 122M239 123L239 134L240 134L239 123M60.3333 124.667L60.6667 125.333L60.3333 124.667z"/>
<path style="fill:#f0fff3; stroke:none;" d="M26 125L26 129L27 129L26 125M275.333 127.667L275.667 128.333L275.333 127.667M25 129L25 134L26 134L25 129z"/>
<path style="fill:#81ff98; stroke:none;" d="M57.3333 129.667L57.6667 130.333L57.3333 129.667M56 132L56 136L57 136L56 132M65.3333 133.667L65.6667 134.333L65.3333 133.667M230 133L230 136L231 136L230 133z"/>
<path style="fill:#f0fff3; stroke:none;" d="M24 134L24 140L25 140L24 134z"/>
<path style="fill:#81ff98; stroke:none;" d="M238 135L238 138L239 138L238 135z"/>
<path style="fill:#f0fff3; stroke:none;" d="M273 135L273 140L274 140L273 135z"/>
<path style="fill:#81ff98; stroke:none;" d="M64 136L64 140L65 140L64 136M55 137L55 151L56 151L55 137M229 137L229 143L230 143L229 137M237 139L237 147L238 147L237 139z"/>
<path style="fill:#f0fff3; stroke:none;" d="M23 140L23 161L24 161L23 140M272 140L272 156L273 156L272 140z"/>
<path style="fill:#81ff98; stroke:none;" d="M63 141L63 155L64 155L63 141M227 146L227 151L228 151L227 146M235 150L235 153L236 153L235 150M54 152L54 162L55 162L54 152M234.333 154.667L234.667 155.333L234.333 154.667M62 156L62 164L63 164L62 156z"/>
<path style="fill:#f0fff3; stroke:none;" d="M270 159L270 164L271 164L270 159M22 161L22 181L23 181L22 161z"/>
<path style="fill:#81ff98; stroke:none;" d="M221 161L221 164L222 164L221 161M61 165L61 168L62 168L61 165M51 167L51 180L52 180L51 167M59 171L59 182L60 182L59 171M226 171L226 174L227 174L226 171M216.333 172.667L216.667 173.333L216.333 172.667M224.333 176.667L224.667 177.333L224.333 176.667M50 181L50 202L51 202L50 181M58 183L58 198L59 198L58 183z"/>
<path style="fill:#f0fff3; stroke:none;" d="M262 184L262 196L263 196L262 184M25 185L25 189L26 189L25 185M26 189L26 193L27 193L26 189M27 193L27 197L28 197L27 193M28 197L28 200L29 200L28 197z"/>
<path style="fill:#81ff98; stroke:none;" d="M190 205L190 209L191 209L190 205z"/>
<path style="fill:#f0fff3; stroke:none;" d="M33 207L33 211L34 211L33 207z"/>
<path style="fill:#81ff98; stroke:none;" d="M193 211L193 212L196 212L193 211z"/>
<path style="fill:#f0fff3; stroke:none;" d="M36 215L36 220L37 220L36 215z"/>
<path style="fill:#81ff98; stroke:none;" d="M100 216L100 217L113 217L100 216M82 217L82 218L99 218L82 217M115 217L115 218L124 218L115 217M126 218L126 219L131 219L126 218M133 219L133 220L221 220L193 219L133 219M226 223L226 226L227 226L226 223M102 224L102 225L110 225L102 224M76.6667 225.333L77.3333 225.667L76.6667 225.333M90 225L90 226L101 226L90 225M111 225L111 226L123 226L111 225M124 226L124 227L129 227L124 226M80 227L80 228L88 228L80 227M130 227L130 228L218 228L190 227L130 227M219 228L219 229L224 229L219 228z"/>
<path style="fill:#f0fff3; stroke:none;" d="M84 263L84 264L91 264L84 263M92.6667 264.333L93.3333 264.667L92.6667 264.333M95.6667 265.333L96.3333 265.667L95.6667 265.333M146 266L146 267L176 267L146 266M99.6667 267.333L100.333 267.667L99.6667 267.333M138 267L138 268L146 268L138 267M129 268L129 269L138 269L129 268M104.667 269.333L105.333 269.667L104.667 269.333M107 270L107 271L112 271L107 270M122 270L122 271L127 271L122 270M113 271L113 272L122 272L113 271z"/>
</svg>
