<svg xmlns="http://www.w3.org/2000/svg" viewBox="0 0 300 300"><path fill="#f0fff3" d="M0 0v300h300V0H0z"/><path fill="#81ff98" d="M119 28c-8 2-14 8-21 11-18 8-39 18-52 33-6 7-9 16-14 23-3 5-9 8-11 13-5 12-5 30-5 43 0 11-2 21-1 32 2 10 7 20 10 29 3 6 4 13 8 19 6 8 16 12 23 19 6 7 10 14 18 18 25 14 50 9 77 6h27c16-4 31-15 44-25 18-13 36-27 46-47 3-6 2-13 4-19l9-41c1-5 4-9 4-14-2-33-26-72-53-90-21-15-48-8-72-9-13-1-28-4-41-1z"/><path fill="#f0fff3" d="M121 35v1l16-1h-16z"/><path fill="#07ff33" d="M125 36c-9 1-16 8-24 12-17 7-35 16-48 30-6 7-10 17-15 24l-9 11c-5 11-5 28-5 40 0 9-2 17-1 26 2 10 7 20 10 29 3 6 4 13 8 18 5 7 14 11 21 17 5 5 8 12 15 16 5 3 10 4 15 5 8 2 15 6 23 7 11 1 23-4 34-5h25c15-3 29-15 41-23 17-12 34-26 45-44 3-6 2-14 4-20 5-15 11-34 11-50-1-30-22-65-46-82-22-17-55-10-80-9-8 0-15-4-24-2z"/><path fill="#f0fff3" d="M183 35v1h16l-16-1m-43 1v1h4l-4-1m12 0v1h31l-31-1m-35 1v1-1m27 0v1h8l-8-1m62 1v1h7l-7-1m-92 1v1-1m-5 4v1-1m-2 1v1-1m-2 1v1-1m-2 1v1-1m-2 1v1-1m-12 3v1h5l-5-1m-1 1v1-1m-6 5v1-1m-4 3v1-1m164 1h1-1z"/><path fill="#81ff98" d="M155 60v1h18l-18-1m-5 1v1h4l-4-1z"/><path fill="#f0fff3" d="M154 61c-38 6-82 31-96 69-3 9-2 20-3 29-4 20-10 42 7 57 15 14 27 8 44 8 18 0 35 3 53 3h48c4 0 14 3 17 0 7-6-8-7-10-7h-47c-20 0-39-3-58-3-10 0-22 4-31-1-24-12-19-31-16-53 2-19 3-32 15-48 27-36 73-52 116-43 7 2 16-1 23 2 8 3 17 22 20 31 2 7-3 12-4 18-3 26-12 47-28 67-4 5-10 9-12 14-1 3-1 7 3 6 8-1 15-13 19-18 15-20 22-40 25-65 1-9 6-15 5-24-2-10-12-31-21-36-6-3-14-1-20-1-16-2-32-7-49-5z"/><path fill="#81ff98" d="M175 61v1h8l-8-1z"/><path fill="#f0fff3" d="M72 62v1-1z"/><path fill="#81ff98" d="M143 62v1h6l-6-1m42 0v1h5l-5-1z"/><path fill="#f0fff3" d="M244 63h1-1M70 63v1-1z"/><path fill="#81ff98" d="M138 63v1h3l-3-1m57 1v1h3l-3-1z"/><path fill="#f0fff3" d="M245 65h1-1M67 66h1-1z"/><path fill="#81ff98" d="M200 65v1h20l-20-1m-43 3v1h13l-13-1m-5 1v1h4l-4-1m19 0v1h10l-10-1m-26 1v1h6l-6-1m37 0v1h5l-5-1m-63 1v1-1m24 0v1-1m45 0v1h3l-3-1z"/><path fill="#f0fff3" d="M61 72v1-1z"/><path fill="#81ff98" d="M192 72v1h3l-3-1z"/><path fill="#f0fff3" d="M59 73v1-1z"/><path fill="#81ff98" d="M136 73v1h3l-3-1m60 0v1h22l-22-1z"/><path fill="#f0fff3" d="M57 74v1-1z"/><path fill="#81ff98" d="M132 74v1h3l-3-1z"/><path fill="#f0fff3" d="M255 75h1-1z"/><path fill="#81ff98" d="M219 76h1-1z"/><path fill="#f0fff3" d="M54 76v1-1z"/><path fill="#81ff98" d="M127 76v1h3l-3-1z"/><path fill="#f0fff3" d="M256 77h1-1M50 80h1-1m208 0h1-1M49 82h1-1z"/><path fill="#81ff98" d="M118 81v1-1z"/><path fill="#f0fff3" d="M259 82h1-1m1 2h1-1M47 87h1-1z"/><path fill="#81ff98" d="M109 86v1-1z"/><path fill="#f0fff3" d="M262 87h1-1m1 2h1-1M44 89v3h1l1-3h-2z"/><path fill="#81ff98" d="M228 90h1-1z"/><path fill="#f0fff3" d="M264 90v3h1l-1-3z"/><path fill="#81ff98" d="M230 94h1-1z"/><path fill="#f0fff3" d="M265 93v4h1l-1-4M41 96h1-1m-1 2h1-1m226 0h1-1z"/><path fill="#81ff98" d="M243 99v3h1l-1-3z"/><path fill="#f0fff3" d="M38 101h1-1z"/><path fill="#81ff98" d="M234 101h1-1z"/><path fill="#f0fff3" d="M268 101h1-1m1 2h1-1m-233 1h1-1z"/><path fill="#81ff98" d="M235 103v3h1l-1-3m9 0v12h1l-1-12z"/><path fill="#f0fff3" d="M270 105h1-1m-235 1h1-1m236 0v3h1l-1-3z"/><path fill="#81ff98" d="M236 107v6h1l-1-6z"/><path fill="#f0fff3" d="M32 109v1-1m240 0v9h1l-1-9m-242 1v1-1m-3 4v11h1l-1-11z"/><path fill="#81ff98" d="M65 116h1-1z"/><path fill="#f0fff3" d="M273 118v3h1l-1-3z"/><path fill="#81ff98" d="M73 120h1-1m168 0h1-1z"/><path fill="#f0fff3" d="M274 121v6h1l-1-6z"/><path fill="#81ff98" d="M231 122v10h1l-1-10m8 1v11h1l-1-11m-179 2h1-1z"/><path fill="#f0fff3" d="M26 125v4h1l-1-4m249 3h1-1m-250 1v5h1l-1-5z"/><path fill="#81ff98" d="M57 130h1-1m-1 2v4h1l-1-4m9 2h1-1m165-1v3h1l-1-3z"/><path fill="#f0fff3" d="M24 134v6h1l-1-6z"/><path fill="#81ff98" d="M238 135v3h1l-1-3z"/><path fill="#f0fff3" d="M273 135v5h1l-1-5z"/><path fill="#81ff98" d="M64 136v4h1l-1-4m-9 1v14h1l-1-14m174 0v6h1l-1-6m8 2v8h1l-1-8z"/><path fill="#f0fff3" d="M23 140v21h1l-1-21m249 0v16h1l-1-16z"/><path fill="#81ff98" d="M63 141v14h1l-1-14m164 5v5h1l-1-5m8 4v3h1l-1-3m-181 2v10h1l-1-10m180 3h1-1m-172 1v8h1l-1-8z"/><path fill="#f0fff3" d="M270 159v5h1l-1-5m-248 2v20h1l-1-20z"/><path fill="#81ff98" d="M221 161v3h1l-1-3m-160 4v3h1l-1-3m-10 2v13h1l-1-13m8 4v11h1l-1-11m167 0v3h1l-1-3m-10 2h1-1m8 4h1-1m-174 4v21h1l-1-21m8 2v15h1l-1-15z"/><path fill="#f0fff3" d="M262 184v12h1l-1-12m-237 1v4h1l-1-4m1 4v4h1l-1-4m1 4v4h1l-1-4m1 4v3h1l-1-3z"/><path fill="#81ff98" d="M190 205v4h1l-1-4z"/><path fill="#f0fff3" d="M33 207v4h1l-1-4z"/><path fill="#81ff98" d="M193 211v1h3l-3-1z"/><path fill="#f0fff3" d="M36 215v5h1l-1-5z"/><path fill="#81ff98" d="M100 216v1h13l-13-1m-18 1v1h17l-17-1m33 0v1h9l-9-1m11 1v1h5l-5-1m7 1v1h88l-29-1h-59m93 4v3h1l-1-3m-124 1v1h8l-8-1m-25 1v1-1m13 0v1h11l-11-1m21 0v1h12l-12-1m13 1v1h5l-5-1m-44 1v1h8l-8-1m50 0v1h88l-29-1h-59m89 1v1h5l-5-1z"/><path fill="#f0fff3" d="M84 263v1h7l-7-1m9 1v1-1m3 1v1-1m50 1v1h30l-30-1m-46 1v1-1m38 0v1h8l-8-1m-9 1v1h9l-9-1m-24 1v1-1m2 1v1h5l-5-1m15 0v1h5l-5-1m-9 1v1h9l-9-1z"/></svg>