<?xml version="1.0" standalone="yes"?>
<svg xmlns="http://www.w3.org/2000/svg" width="300" height="300">
<path style="fill:#f0fff3; stroke:none;" d="M0 0L0 300L300 300L300 0L0 0z"/>
<path style="fill:#81ff98; stroke:none;" d="M119 27.6776C110.958 29.5327 105.307 35.5204 98 38.9355C79.8526 47.4175 59.2764 56.5101 45.623 72.1843C39.8722 78.7862 36.6468 87.6705 31.9148 94.9918C28.8852 99.6792 23.0485 102.948 20.9394 108.048C16.0503 119.87 16.2402 138.258 15.9814 151C15.767 161.557 13.7407 172.427 15.2327 183C16.6652 193.151 21.595 202.669 25.3643 212C27.8326 218.11 28.7818 225.353 32.7067 230.763C38.6344 238.934 48.7062 243.25 55.7415 250.26C62.0972 256.594 65.9028 263.52 74 268.125C99.1842 282.447 124.167 277.176 151 274.321C159.85 273.379 169.286 275.362 178 273.515C194.024 270.118 209.03 258.594 222 249.185C239.613 236.407 257.619 221.616 268.073 202C271.163 196.202 269.537 189.187 271.605 183C276.388 168.69 278.098 156.672 280.78 142C281.631 137.343 284.892 132.768 284.619 128C282.716 94.8006 259.188 56.404 231.992 37.7198C210.763 23.1347 183.702 30.1214 160 28.9221C146.896 28.259 131.98 24.6832 119 27.6776z"/>
<path style="fill:#f0fff3; stroke:none;" d="M121 35L121 36L137 35L121 35z"/>
<path style="fill:#07ff33; stroke:none;" d="M125 35.5244C115.806 37.1569 109.314 43.9327 101 47.6502C83.912 55.2909 65.6497 64.3807 52.5179 78.4193C46.5403 84.8096 42.8279 94.6173 38.0372 101.997C35.4906 105.92 30.9777 109.108 29.0626 113.295C24.2183 123.887 24.1211 141.442 23.9925 153C23.8966 161.616 21.9289 170.377 23.314 179C24.935 189.091 29.6853 198.628 33.4244 208C35.7088 213.726 36.8625 220.54 40.6265 225.514C46.2761 232.98 55.1362 237.154 61.9028 243.368C67.4694 248.48 70.3807 255.334 77.0026 259.454C81.7899 262.433 86.7523 262.587 92 264.098C99.924 266.381 106.543 270.338 115 270.856C126.044 271.531 137.897 267.214 149 266.218C157.217 265.48 165.854 267.117 173.981 265.678C188.692 263.072 203.378 251.2 215.218 242.829C232.25 230.787 249.175 217.466 259.841 199C263.231 193.131 261.946 185.419 264.117 179C269.32 163.615 275.449 145.434 274.925 129C273.967 98.94 252.605 64.3468 229 46.6625C207.323 30.4229 174.013 36.8906 149 37.7021C140.734 37.9703 133.507 34.014 125 35.5244z"/>
<path style="fill:#f0fff3; stroke:none;" d="M183 35L183 36L199 36L183 35M140 36L140 37L144 37L140 36M152 36L152 37L183 37L152 36M116.667 37.3333L117.333 37.6667L116.667 37.3333M144 37L144 38L152 38L144 37M206 38L206 39L213 39L206 38M113.667 39.3333L114.333 39.6667L113.667 39.3333M108.667 43.3333L109.333 43.6667L108.667 43.3333M106.667 44.3333L107.333 44.6667L106.667 44.3333M104.667 45.3333L105.333 45.6667L104.667 45.3333M102.667 46.3333L103.333 46.6667L102.667 46.3333M100.667 47.3333L101.333 47.6667L100.667 47.3333M89 50L89 51L94 51L89 50M87.6667 51.3333L88.3333 51.6667L87.6667 51.3333M81.6667 56.3333L82.3333 56.6667L81.6667 56.3333M77.6667 59.3333L78.3333 59.6667L77.6667 59.3333M242.333 59.6667L242.667 60.3333L242.333 59.6667z"/>
<path style="fill:#81ff98; stroke:none;" d="M155 60L155 61L173 61L155 60M150 61L150 62L154 62L150 61z"/>
<path style="fill:#f0fff3; stroke:none;" d="M154 61.4785C116.036 67.0261 72.0436 92.4232 57.9639 130C54.5666 139.067 56.251 149.543 54.6887 159C51.3488 179.219 45.3587 200.582 62.2954 216.417C76.7736 229.954 88.6985 224.272 106 224.272C123.657 224.272 141.214 227 159 227L207 227C211.186 227.004 220.789 229.526 224.149 226.741C230.515 221.464 216.28 220.007 214 220.001C198.334 219.958 182.667 220 167 220C147.481 220 128.395 217.395 109 217.019C99.0842 216.826 87.3539 220.537 78 216.071C53.5018 204.374 58.8569 184.672 61.78 163C64.2829 144.445 64.941 130.776 76.7152 115.003C103.778 78.747 150.064 62.9297 193 72.0842C200.148 73.6083 209.213 70.9931 215.881 73.8217C224.471 77.4652 233.299 96.4261 235.747 105C237.689 111.799 232.983 116.516 232.182 123C229.009 148.715 220.024 169.576 203.992 189.997C200.428 194.538 193.997 198.534 191.969 204.008C191.029 206.545 191.499 210.577 195.07 210.217C202.723 209.445 209.598 197.414 213.694 192C229.002 171.765 235.656 151.845 239.222 127C240.477 118.258 245.063 112.416 243.631 103C242.137 93.1741 231.929 72.2003 222.914 67.3835C217.266 64.3661 209.175 66.3976 203 65.7749C186.565 64.1179 170.799 59.0237 154 61.4785z"/>
<path style="fill:#81ff98; stroke:none;" d="M175 61L175 62L183 62L175 61z"/>
<path style="fill:#f0fff3; stroke:none;" d="M71.6667 62.3333L72.3333 62.6667L71.6667 62.3333z"/>
<path style="fill:#81ff98; stroke:none;" d="M143 62L143 63L149 63L143 62M185 62L185 63L190 63L185 62z"/>
<path style="fill:#f0fff3; stroke:none;" d="M244.333 62.6667L244.667 63.3333L244.333 62.6667M69.6667 63.3333L70.3333 63.6667L69.6667 63.3333z"/>
<path style="fill:#81ff98; stroke:none;" d="M138 63L138 64L141 64L138 63M195 64L195 65L198 65L195 64z"/>
<path style="fill:#f0fff3; stroke:none;" d="M245.333 64.6667L245.667 65.3333L245.333 64.6667M67.3333 65.6667L67.6667 66.3333L67.3333 65.6667z"/>
<path style="fill:#81ff98; stroke:none;" d="M200 65L200 66L220 66L200 65M157 68L157 69L170 69L157 68M152 69L152 70L156 70L152 69M171 69L171 70L181 70L171 69M145 70L145 71L151 71L145 70M182 70L182 71L187 71L182 70M118.667 71.3333L119.333 71.6667L118.667 71.3333M142.667 71.3333L143.333 71.6667L142.667 71.3333M188 71L188 72L191 72L188 71z"/>
<path style="fill:#f0fff3; stroke:none;" d="M60.6667 72.3333L61.3333 72.6667L60.6667 72.3333z"/>
<path style="fill:#81ff98; stroke:none;" d="M192 72L192 73L195 73L192 72z"/>
<path style="fill:#f0fff3; stroke:none;" d="M58.6667 73.3333L59.3333 73.6667L58.6667 73.3333z"/>
<path style="fill:#81ff98; stroke:none;" d="M136 73L136 74L139 74L136 73M196 73L196 74L218 74L196 73z"/>
<path style="fill:#f0fff3; stroke:none;" d="M56.6667 74.3333L57.3333 74.6667L56.6667 74.3333z"/>
<path style="fill:#81ff98; stroke:none;" d="M132 74L132 75L135 75L132 74z"/>
<path style="fill:#f0fff3; stroke:none;" d="M255.333 74.6667L255.667 75.3333L255.333 74.6667z"/>
<path style="fill:#81ff98; stroke:none;" d="M219.333 75.6667L219.667 76.3333L219.333 75.6667z"/>
<path style="fill:#f0fff3; stroke:none;" d="M53.6667 76.3333L54.3333 76.6667L53.6667 76.3333z"/>
<path style="fill:#81ff98; stroke:none;" d="M127 76L127 77L130 77L127 76z"/>
<path style="fill:#f0fff3; stroke:none;" d="M256.333 76.6667L256.667 77.3333L256.333 76.6667M50.3333 79.6667L50.6667 80.3333L50.3333 79.6667M258.333 79.6667L258.667 80.3333L258.333 79.6667M49.3333 81.6667L49.6667 82.3333L49.3333 81.6667z"/>
<path style="fill:#81ff98; stroke:none;" d="M117.667 81.3333L118.333 81.6667L117.667 81.3333z"/>
<path style="fill:#f0fff3; stroke:none;" d="M259.333 81.6667L259.667 82.3333L259.333 81.6667M260.333 83.6667L260.667 84.3333L260.333 83.6667M47.3333 86.6667L47.6667 87.3333L47.3333 86.6667z"/>
<path style="fill:#81ff98; stroke:none;" d="M108.667 86.3333L109.333 86.6667L108.667 86.3333z"/>
<path style="fill:#f0fff3; stroke:none;" d="M262.333 86.6667L262.667 87.3333L262.333 86.6667M263.333 88.6667L263.667 89.3333L263.333 88.6667M44 89L44 92L45 92L46 89L44 89z"/>
<path style="fill:#81ff98; stroke:none;" d="M228.333 89.6667L228.667 90.3333L228.333 89.6667z"/>
<path style="fill:#f0fff3; stroke:none;" d="M264 90L264 93L265 93L264 90z"/>
<path style="fill:#81ff98; stroke:none;" d="M230.333 93.6667L230.667 94.3333L230.333 93.6667z"/>
<path style="fill:#f0fff3; stroke:none;" d="M265 93L265 97L266 97L265 93M41.3333 95.6667L41.6667 96.3333L41.3333 95.6667M40.3333 97.6667L40.6667 98.3333L40.3333 97.6667M266.333 97.6667L266.667 98.3333L266.333 97.6667z"/>
<path style="fill:#81ff98; stroke:none;" d="M243 99L243 102L244 102L243 99z"/>
<path style="fill:#f0fff3; stroke:none;" d="M38.3333 100.667L38.6667 101.333L38.3333 100.667z"/>
<path style="fill:#81ff98; stroke:none;" d="M234.333 100.667L234.667 101.333L234.333 100.667z"/>
<path style="fill:#f0fff3; stroke:none;" d="M268.333 100.667L268.667 101.333L268.333 100.667M269.333 102.667L269.667 103.333L269.333 102.667M36.3333 103.667L36.6667 104.333L36.3333 103.667z"/>
<path style="fill:#81ff98; stroke:none;" d="M235 103L235 106L236 106L235 103M244 103L244 115L245 115L244 103z"/>
<path style="fill:#f0fff3; stroke:none;" d="M270.333 104.667L270.667 105.333L270.333 104.667M35.3333 105.667L35.6667 106.333L35.3333 105.667M271 106L271 109L272 109L271 106z"/>
<path style="fill:#81ff98; stroke:none;" d="M236 107L236 113L237 113L236 107z"/>
<path style="fill:#f0fff3; stroke:none;" d="M31.6667 109.333L32.3333 109.667L31.6667 109.333M272 109L272 118L273 118L272 109M29.6667 110.333L30.3333 110.667L29.6667 110.333M27 114L27 125L28 125L27 114z"/>
<path style="fill:#81ff98; stroke:none;" d="M65.3333 115.667L65.6667 116.333L65.3333 115.667z"/>
<path style="fill:#f0fff3; stroke:none;" d="M273 118L273 121L274 121L273 118z"/>
<path style="fill:#81ff98; stroke:none;" d="M73.3333 119.667L73.6667 120.333L73.3333 119.667M241.333 119.667L241.667 120.333L241.333 119.667z"/>
<path style="fill:#f0fff3; stroke:none;" d="M274 121L274 127L275 127L274 121z"/>
<path style="fill:#81ff98; stroke:none;" d="M231 122L231 132L232 132L231 122M239 123L239 134L240 134L239 123M60.3333 124.667L60.6667 125.333L60.3333 124.667z"/>
<path style="fill:#f0fff3; stroke:none;" d="M26 125L26 129L27 129L26 125M275.333 127.667L275.667 128.333L275.333 127.667M25 129L25 134L26 134L25 129z"/>
<path style="fill:#81ff98; stroke:none;" d="M57.3333 129.667L57.6667 130.333L57.3333 129.667M56 132L56 136L57 136L56 132M65.3333 133.667L65.6667 134.333L65.3333 133.667M230 133L230 136L231 136L230 133z"/>
<path style="fill:#f0fff3; stroke:none;" d="M24 134L24 140L25 140L24 134z"/>
<path style="fill:#81ff98; stroke:none;" d="M238 135L238 138L239 138L238 135z"/>
<path style="fill:#f0fff3; stroke:none;" d="M273 135L273 140L274 140L273 135z"/>
<path style="fill:#81ff98; stroke:none;" d="M64 136L64 140L65 140L64 136M55 137L55 151L56 151L55 137M229 137L229 143L230 143L229 137M237 139L237 147L238 147L237 139z"/>
<path style="fill:#f0fff3; stroke:none;" d="M23 140L23 161L24 161L23 140M272 140L272 156L273 156L272 140z"/>
<path style="fill:#81ff98; stroke:none;" d="M63 141L63 155L64 155L63 141M227 146L227 151L228 151L227 146M235 150L235 153L236 153L235 150M54 152L54 162L55 162L54 152M234.333 154.667L234.667 155.333L234.333 154.667M62 156L62 164L63 164L62 156z"/>
<path style="fill:#f0fff3; stroke:none;" d="M270 159L270 164L271 164L270 159M22 161L22 181L23 181L22 161z"/>
<path style="fill:#81ff98; stroke:none;" d="M221 161L221 164L222 164L221 161M61 165L61 168L62 168L61 165M51 167L51 180L52 180L51 167M59 171L59 182L60 182L59 171M226 171L226 174L227 174L226 171M216.333 172.667L216.667 173.333L216.333 172.667M224.333 176.667L224.667 177.333L224.333 176.667M50 181L50 202L51 202L50 181M58 183L58 198L59 198L58 183z"/>
<path style="fill:#f0fff3; stroke:none;" d="M262 184L262 196L263 196L262 184M25 185L25 189L26 189L25 185M26 189L26 193L27 193L26 189M27 193L27 197L28 197L27 193M28 197L28 200L29 200L28 197z"/>
<path style="fill:#81ff98; stroke:none;" d="M190 205L190 209L191 209L190 205z"/>
<path style="fill:#f0fff3; stroke:none;" d="M33 207L33 211L34 211L33 207z"/>
<path style="fill:#81ff98; stroke:none;" d="M193 211L193 212L196 212L193 211z"/>
<path style="fill:#f0fff3; stroke:none;" d="M36 215L36 220L37 220L36 215z"/>
<path style="fill:#81ff98; stroke:none;" d="M100 216L100 217L113 217L100 216M82 217L82 218L99 218L82 217M115 217L115 218L124 218L115 217M126 218L126 219L131 219L126 218M133 219L133 220L221 220L192 219L133 219M226 223L226 226L227 226L226 223M102 224L102 225L110 225L102 224M76.6667 225.333L77.3333 225.667L76.6667 225.333M90 225L90 226L101 226L90 225M111 225L111 226L123 226L111 225M124 226L124 227L129 227L124 226M80 227L80 228L88 228L80 227M130 227L130 228L218 228L189 227L130 227M219 228L219 229L224 229L219 228z"/>
<path style="fill:#f0fff3; stroke:none;" d="M84 263L84 264L91 264L84 263M92.6667 264.333L93.3333 264.667L92.6667 264.333M95.6667 265.333L96.3333 265.667L95.6667 265.333M146 266L146 267L176 267L146 266M99.6667 267.333L100.333 267.667L99.6667 267.333M138 267L138 268L146 268L138 267M129 268L129 269L138 269L129 268M104.667 269.333L105.333 269.667L104.667 269.333M107 270L107 271L112 271L107 270M122 270L122 271L127 271L122 270M113 271L113 272L122 272L113 271z"/>
</svg>
